<?xml version="1.0" encoding="utf-8"?>
<!-- Generator: Adobe Illustrator 24.0.1, SVG Export Plug-In . SVG Version: 6.00 Build 0)  -->
<svg version="1.1" id="Capa_1" xmlns="http://www.w3.org/2000/svg" xmlns:xlink="http://www.w3.org/1999/xlink" x="0px" y="0px"
	 viewBox="0 0 500 500" style="enable-background:new 0 0 500 500;" xml:space="preserve">
<style type="text/css">
	.st0{fill:#F28A22;}
	.st1{fill:#25A7EF;}
	.st2{fill:#2577EF;}
	.st3{fill:#F9E3CF;}
	.st4{fill:#B5D3F7;}
	.st5{fill:#DEF0F9;}
</style>
<path class="st0" d="M345.9,196.3h-205c-17.7,0-32.1-14.4-32.1-32.1v-24.9c0-17.7,14.4-32.1,32.1-32.1h205
	c17.7,0,32.1,14.4,32.1,32.1v24.9C378,181.9,363.6,196.3,345.9,196.3z"/>
<path class="st1" d="M345.9,383.4h-205c-17.7,0-32.1-14.4-32.1-32.1v-24.9c0-17.7,14.4-32.1,32.1-32.1h205
	c17.7,0,32.1,14.4,32.1,32.1v24.9C378,369.1,363.6,383.4,345.9,383.4z"/>
<path class="st2" d="M348.2,275.5H138.6c-16.4,0-29.8-13.3-29.8-29.8v-9.2c0-16.4,13.3-29.8,29.8-29.8h209.7
	c16.4,0,29.8,13.3,29.8,29.8v9.2C378,262.1,364.7,275.5,348.2,275.5z"/>
<rect x="124.9" y="124.8" class="st3" width="86.2" height="12.6"/>
<rect x="124.9" y="146.5" class="st3" width="186.5" height="12.6"/>
<rect x="124.9" y="166.8" class="st3" width="119.2" height="12.6"/>
<rect x="128.5" y="237.6" class="st4" width="86.2" height="12.6"/>
<rect x="125.7" y="329.4" class="st5" width="186.5" height="12.6"/>
<rect x="125.7" y="349.8" class="st5" width="119.2" height="12.6"/>
</svg>
