<?xml version="1.0" encoding="utf-8"?>
<!-- Generator: Adobe Illustrator 24.0.1, SVG Export Plug-In . SVG Version: 6.00 Build 0)  -->
<svg version="1.1" id="Capa_1" xmlns="http://www.w3.org/2000/svg" xmlns:xlink="http://www.w3.org/1999/xlink" x="0px" y="0px"
	 viewBox="0 0 500 500" style="enable-background:new 0 0 500 500;" xml:space="preserve">
<style type="text/css">
	.st0{fill:#FFF5F5;}
	.st1{fill:#EFE2DD;}
	.st2{fill:#CDBFBA;}
	.st3{fill:#596C76;}
	.st4{fill:#465A61;}
	.st5{fill:#FF637B;}
	.st6{fill:#E63950;}
	.st7{fill:#15B3F9;}
</style>
<g>
	<g>
		<g>
			<path class="st0" d="M334.1,166.6v141.9l-8.3,82.7l-207,0.1V108.7h157.3l8.4,49.5L334.1,166.6z"/>
			<path class="st1" d="M334.1,166.6v141.9l-8.3,82.7l-107.6,0.1V108.7h58l8.4,49.5L334.1,166.6z"/>
			<path class="st2" d="M334.1,166.6l-58-58v58H334.1z"/>
		</g>
		<g>
			<path class="st3" d="M151.9,209.2h66.2v16.6h-66.2V209.2z"/>
		</g>
		<g>
			<path class="st3" d="M151.9,242.3h99.4v16.6h-99.4V242.3z"/>
		</g>
		<path class="st4" d="M218.2,242.3h33.1v16.6h-33.1V242.3z"/>
		<g>
			<g>
				<path class="st5" d="M176.8,358.2c-13.7,0-24.8-11.1-24.8-24.8s11.1-24.8,24.8-24.8s24.8,11.1,24.8,24.8
					S190.5,358.2,176.8,358.2z"/>
				<circle class="st6" cx="176.8" cy="333.4" r="8.3"/>
			</g>
		</g>
	</g>
	<path class="st4" d="M380.7,189.2c-1-3.5-3.3-6.6-6.5-8.4c-3.2-1.8-7-2.3-10.5-1.4c-3.5,1-6.6,3.3-8.4,6.5l-2.3,4
		c-2.2-1.3-5-0.5-6.3,1.7l-11.7,20l-4-2.3c-1.1-0.6-2.3-0.8-3.5-0.5c-1.2,0.3-2.2,1.1-2.8,2.2c-1.2,2.2-0.5,5,1.7,6.3l4,2.3
		l-39.2,67.9l-9.7,25.9l-4.6,8.6c-2.7,4.7-2.4,10.5,0.7,14.9l7.6,5.3c1.2,0.3,2.4,0.5,3.6,0.5c4.9,0,9.5-2.6,12-6.8l4.6-7.7
		l17.6-21.3l39.6-68.7l4,2.3c1.1,0.6,1.8,1.6,2.2,2.8c0.3,1.2,0.2,2.4-0.5,3.5L350,278.5c-0.7,1-0.9,2.3-0.7,3.6
		c0.3,1.2,1,2.3,2.1,2.9c1.1,0.6,2.3,0.8,3.5,0.5c1.2-0.3,2.2-1.1,2.8-2.2l18.4-31.9c1.8-3.2,2.3-7,1.4-10.5c-1-3.5-3.3-6.6-6.5-8.4
		l-4-2.3l11.5-20c1.3-2.2,0.5-5-1.7-6.3l2.3-4C381.2,196.7,381.7,192.9,380.7,189.2z M363.3,190.5c0.6-1.1,1.6-1.8,2.8-2.2
		c1.2-0.3,2.4-0.1,3.5,0.5c1.1,0.6,1.8,1.6,2.2,2.8c0.3,1.2,0.1,2.4-0.5,3.5l-2.3,4l-8-4.6L363.3,190.5z M300.5,319.3l-2.3-1.3
		l-6.8-4l6.5-17.5l14.5,8.4L300.5,319.3z M286.6,332.6c-1.9-1.4-2.5-4-1.4-6l2.3-4l8,4.6l-2.3,4c-0.6,1.1-1.7,1.9-3,2.2
		C289,333.6,287.7,333.3,286.6,332.6z M317.7,297.3l-16-9.2l36.9-63.9l16,9.2L317.7,297.3z M359.2,225.4l-16-9.2l9.2-16l16,9.2
		L359.2,225.4z"/>
	<path class="st7" d="M276.1,339.3c-2.1,1.6-3.9,3.4-5.6,5.4c-1.3,1.5-3.1,5.3-4.8,6.2c-2.3,1.2-3.1-3.9-3.9-5.9
		c-0.8-1.7-1.8-3.8-3.3-5c-3.4-2.7-6.5-0.2-9.1,2.3c-0.6,0.6-1.9,2.5-2.7,2.7c-1.8,0.4-1-0.4-0.9-2.2c0.1-3.4,0.1-6.7-0.2-10.1
		c-0.4-4.1-1.2-9.7-5-12.2c-3.5-2.3-7.1-0.5-8.9,2.8c-6,11.7-10.3,25.4-13.6,38.1c-1.1,4.1,5.7,5.5,6.7,1.7c2.2-8.6,5.2-17,8.4-25.2
		c1.3-3.2,3.4-6.8,4.2-10.2c0.3,0.8,0.5,1.5,0.7,2.3c0.5,2.1,0.6,4.2,0.7,6.4c0.2,4.9-2.1,13.3,3.8,15.6c5.8,2.3,8.6-3,12.4-6
		c1.8,2.6,2.3,7.6,3.9,9.9c1.6,2.3,4.3,3.8,7.2,3.2c2.9-0.6,4.6-3.2,6.3-5.5c2.7-3.5,5.2-7,8.8-9.8
		C284.6,341,279.2,336.9,276.1,339.3z"/>
</g>
</svg>
