<?xml version="1.0" encoding="utf-8"?>
<!-- Generator: Adobe Illustrator 24.0.1, SVG Export Plug-In . SVG Version: 6.00 Build 0)  -->
<svg version="1.1" id="Capa_1" xmlns="http://www.w3.org/2000/svg" xmlns:xlink="http://www.w3.org/1999/xlink" x="0px" y="0px"
	 viewBox="0 0 500 500" style="enable-background:new 0 0 500 500;" xml:space="preserve">
<style type="text/css">
	.st0{fill:#09263D;}
	.st1{fill:#FFFFFF;}
	.st2{fill:#FFAF57;}
</style>
<g>
	<circle class="st0" cx="250" cy="249.8" r="108"/>
	<path class="st1" d="M214.3,186.6c0-5.8,0.8-11.5,2.3-16.8c-29.5,5-51.9,30.6-51.9,61.5c0,34.5,27.9,62.4,62.4,62.4
		c28.6,0,52.8-19.3,60.1-45.6c-3.4,0.6-6.9,0.9-10.5,0.9C242.2,249,214.3,221.1,214.3,186.6z"/>
	<path class="st1" d="M286.5,326.2c-5.5-9.4-15.7-15.7-27.3-15.7c-0.2,0-0.4,0-0.5,0c-5.8-7.9-15.1-13.1-25.6-13.1
		c-10.8,0-20.3,5.4-26,13.6c-7.4,1.2-14,4.6-19.2,9.6c-3.9-1.8-8.3-2.7-12.9-2.7c-2.9,0-5.7,0.4-8.3,1.1
		c19.9,23.9,49.9,39.2,83.4,39.2c18.8,0,36.5-4.8,52-13.3C299.5,336.8,293.9,330.1,286.5,326.2z"/>
	<path class="st1" d="M166.9,301.9l-4.5-4c-0.3-0.3-0.7-0.4-1.2-0.3l-5.8,1.4c-1,0.3-1.9-0.8-1.5-1.8l2.4-5.5
		c0.2-0.4,0.1-0.8-0.1-1.2l-3.2-5.1c-0.6-0.9,0.2-2.1,1.2-1.9l6,0.6c0.4,0,0.8-0.1,1.1-0.4l3.9-4.6c0.7-0.8,2-0.5,2.2,0.6l1.3,5.9
		c0.1,0.4,0.4,0.8,0.8,0.9l5.6,2.3c1,0.4,1.1,1.8,0.2,2.3l-5.2,3c-0.4,0.2-0.6,0.6-0.6,1l-0.4,6C169,302.1,167.7,302.6,166.9,301.9z
		"/>
	<path class="st1" d="M217.5,290.1l-1.9-1.7c-0.1-0.1-0.3-0.2-0.5-0.1l-2.4,0.6c-0.4,0.1-0.8-0.3-0.6-0.7l1-2.3
		c0.1-0.2,0.1-0.3,0-0.5l-1.3-2.1c-0.2-0.4,0.1-0.9,0.5-0.8l2.5,0.2c0.2,0,0.3-0.1,0.5-0.2l1.6-1.9c0.3-0.3,0.8-0.2,0.9,0.2l0.5,2.4
		c0,0.2,0.2,0.3,0.3,0.4l2.3,0.9c0.4,0.2,0.4,0.7,0.1,1l-2.2,1.3c-0.2,0.1-0.2,0.2-0.3,0.4l-0.2,2.5
		C218.4,290.2,217.8,290.4,217.5,290.1z"/>
	<path class="st1" d="M296.6,205.9l-2.2-1.9c-0.2-0.1-0.4-0.2-0.6-0.1l-2.8,0.7c-0.5,0.1-0.9-0.4-0.7-0.8l1.2-2.6
		c0.1-0.2,0.1-0.4,0-0.6L290,198c-0.3-0.4,0.1-1,0.6-0.9l2.9,0.3c0.2,0,0.4-0.1,0.5-0.2l1.9-2.2c0.3-0.4,1-0.2,1.1,0.3l0.6,2.8
		c0,0.2,0.2,0.4,0.4,0.4l2.7,1.1c0.5,0.2,0.5,0.8,0.1,1.1l-2.5,1.5c-0.2,0.1-0.3,0.3-0.3,0.5l-0.2,2.9
		C297.6,206,297,206.3,296.6,205.9z"/>
	<path class="st2" d="M358,258.9c-29.3,1.9-52.5,26.3-52.5,56.1c0,8.7,2,17,5.5,24.4C337.2,321.4,355.2,292.3,358,258.9z"/>
	<path class="st1" d="M156.3,228.1l-2.3-2c-0.2-0.1-0.4-0.2-0.6-0.1l-2.9,0.7c-0.5,0.1-1-0.4-0.7-0.9l1.2-2.8c0.1-0.2,0.1-0.4,0-0.6
		l-1.6-2.6c-0.3-0.5,0.1-1,0.6-1l3,0.3c0.2,0,0.4-0.1,0.6-0.2l2-2.3c0.3-0.4,1-0.2,1.1,0.3l0.6,3c0,0.2,0.2,0.4,0.4,0.5l2.8,1.1
		c0.5,0.2,0.5,0.9,0.1,1.2l-2.6,1.5c-0.2,0.1-0.3,0.3-0.3,0.5l-0.2,3C157.4,228.2,156.7,228.5,156.3,228.1z"/>
</g>
</svg>
