<?xml version="1.0" encoding="utf-8"?>
<!-- Generator: Adobe Illustrator 24.0.1, SVG Export Plug-In . SVG Version: 6.00 Build 0)  -->
<svg version="1.1" id="Capa_1" xmlns="http://www.w3.org/2000/svg" xmlns:xlink="http://www.w3.org/1999/xlink" x="0px" y="0px"
	 viewBox="0 0 500 500" style="enable-background:new 0 0 500 500;" xml:space="preserve">
<style type="text/css">
	.st0{fill:#25A7EF;}
	.st1{fill:#DEF0F9;}
</style>
<path class="st0" d="M350.5,161.2H166.4h-3.4h-62.9l35.6,66.3v83.8c0,15.1,12.2,27.3,27.3,27.3h187.4c15.1,0,27.3-12.2,27.3-27.3
	V188.6C377.8,173.5,365.6,161.2,350.5,161.2z"/>
<g>
	<path class="st1" d="M344.6,219.4H169.7c-6.1,0-11-4.9-11-11v0c0-6.1,4.9-11,11-11h174.9c6.1,0,11,4.9,11,11v0
		C355.6,214.5,350.7,219.4,344.6,219.4z"/>
	<path class="st1" d="M273.7,260.9H169.9c-6.1,0-11-4.9-11-11v0c0-6.1,4.9-11,11-11h103.8c6.1,0,11,4.9,11,11v0
		C284.7,256,279.8,260.9,273.7,260.9z"/>
	<path class="st1" d="M301.8,302.6H169.4c-6.1,0-11-4.9-11-11v0c0-6.1,4.9-11,11-11h132.4c6.1,0,11,4.9,11,11v0
		C312.8,297.7,307.9,302.6,301.8,302.6z"/>
</g>
</svg>
